<svg width="33" height="32" viewBox="0 0 33 32" fill="none" xmlns="http://www.w3.org/2000/svg">
<path d="M7.085 13.8825C9.605 18.835 13.665 22.8775 18.6175 25.415L22.4675 21.565C22.94 21.0925 23.64 20.935 24.2525 21.145C26.2125 21.7925 28.33 22.1425 30.5 22.1425C31.4625 22.1425 32.25 22.93 32.25 23.8925V30C32.25 30.9625 31.4625 31.75 30.5 31.75C14.0675 31.75 0.75 18.4325 0.75 2C0.75 1.0375 1.5375 0.25 2.5 0.25H8.625C9.5875 0.25 10.375 1.0375 10.375 2C10.375 4.1875 10.725 6.2875 11.3725 8.2475C11.565 8.86 11.425 9.5425 10.935 10.0325L7.085 13.8825Z" fill="white"/>
</svg>
