<svg width="354" height="369" viewBox="0 0 354 369" fill="none" xmlns="http://www.w3.org/2000/svg">
<path d="M317.479 106.783C311.981 101.875 306.158 97.378 300.68 92.439C274.81 69.115 260.08 34.577 230.472 15.995C198.981 -3.76898 158.158 -4.18998 125.917 14.697C90.0544 35.706 77.9113 81.602 48.8741 111.288C3.88374 157.285 -11.6054 209.031 9.04617 254.207C24.0293 286.984 63.4187 307.076 92.6342 319.463C128.922 334.848 165.382 364.594 204.737 368.316C238.272 371.487 272.079 353.725 287.842 319.917C296.793 300.72 313.099 288.295 326.588 273.42C362.108 234.249 360.884 159.64 328.779 118.569C325.361 114.195 321.507 110.379 317.479 106.783Z" fill="#E83538"/>
<path opacity="0.7" d="M317.479 106.783C311.981 101.875 306.158 97.378 300.68 92.439C274.81 69.115 260.08 34.577 230.472 15.995C198.981 -3.76898 158.158 -4.18998 125.917 14.697C90.0544 35.706 77.9113 81.602 48.8741 111.288C3.88374 157.285 -11.6054 209.031 9.04617 254.207C24.0293 286.984 63.4187 307.076 92.6342 319.463C128.922 334.848 165.382 364.594 204.737 368.316C238.272 371.487 272.079 353.725 287.842 319.917C296.793 300.72 313.099 288.295 326.588 273.42C362.108 234.249 360.884 159.64 328.779 118.569C325.361 114.195 321.507 110.379 317.479 106.783Z" fill="white"/>
<path opacity="0.1" d="M134.633 341.232L78.4382 70.139C69.5557 84.695 60.5904 99.311 48.8741 111.289C3.88374 157.286 -11.6054 209.032 9.04617 254.208C24.0293 286.985 63.4187 307.077 92.6351 319.464C106.557 325.366 120.506 333.382 134.633 341.232Z" fill="black"/>
<path d="M204.226 326.094L93.3258 336.186C90.1335 336.477 86.9622 333.556 86.2424 329.664L39.068 74.609C38.3482 70.716 36.8976 63.4 49.7778 62.72L161.943 53.192C165.136 52.901 168.307 55.822 169.027 59.714L216.913 315.198C217.608 318.627 214.118 325.82 204.226 326.094Z" fill="#263238" stroke="#263238" stroke-miterlimit="10" stroke-linecap="round" stroke-linejoin="round"/>
<path d="M212.719 321.427L101.819 331.52C98.6266 331.81 95.4561 328.89 94.7354 324.998L47.5619 69.943C46.8421 66.05 48.8459 62.659 52.0382 62.368L162.938 52.276C166.13 51.985 169.302 54.906 170.022 58.798L217.195 313.853C217.915 317.745 215.911 321.137 212.719 321.427Z" fill="white" stroke="#263238" stroke-miterlimit="10" stroke-linecap="round" stroke-linejoin="round"/>
<path d="M118.927 72.628L103.683 74.015C102.819 74.094 101.961 73.304 101.766 72.251C101.571 71.198 102.114 70.2799 102.977 70.2019L118.222 68.815C119.085 68.736 119.943 69.5259 120.138 70.5789C120.333 71.6319 119.79 72.549 118.927 72.628Z" fill="#263238"/>
<path d="M206.31 297.547L99.3282 307.283L57.0114 78.487L82.3685 76.179L85.7555 78.806C86.9385 79.724 88.2954 80.162 89.5912 80.044L134.331 75.972C135.681 75.849 136.873 75.132 137.686 73.953L139.753 70.956L163.994 68.75L206.31 297.547Z" fill="#E83538" stroke="#263238" stroke-miterlimit="10" stroke-linecap="round" stroke-linejoin="round"/>
<path d="M157.54 309.155C157.237 307.518 155.903 306.289 154.561 306.411C153.218 306.533 152.375 307.96 152.678 309.597C152.981 311.235 154.315 312.463 155.657 312.341C157 312.219 157.843 310.793 157.54 309.155Z" fill="#263238"/>
<path d="M88.3381 127.553L76.9067 128.593C75.1704 128.751 73.446 127.163 73.0537 125.045L70.4757 111.105C70.0844 108.988 71.1737 107.143 72.91 106.985L84.3414 105.945C86.0777 105.787 87.8021 107.375 88.1943 109.493L90.7723 123.434C91.1636 125.55 90.0744 127.395 88.3381 127.553Z" fill="white" stroke="white" stroke-miterlimit="10"/>
<path d="M113.873 125.229L102.442 126.269C100.706 126.427 98.9815 124.839 98.5892 122.721L96.0112 108.78C95.6199 106.663 96.7092 104.818 98.4455 104.66L109.877 103.62C111.613 103.462 113.338 105.05 113.73 107.168L116.308 121.109C116.699 123.227 115.609 125.071 113.873 125.229Z" fill="white" stroke="white" stroke-miterlimit="10"/>
<path d="M139.407 122.905L127.976 123.945C126.24 124.103 124.515 122.515 124.123 120.397L121.545 106.456C121.154 104.339 122.243 102.494 123.979 102.336L135.411 101.296C137.147 101.138 138.871 102.726 139.264 104.844L141.842 118.785C142.234 120.903 141.144 122.747 139.407 122.905Z" fill="white" stroke="white" stroke-miterlimit="10"/>
<path d="M164.943 120.581L153.512 121.621C151.776 121.779 150.052 120.191 149.659 118.073L147.081 104.132C146.69 102.015 147.779 100.17 149.516 100.012L160.947 98.972C162.683 98.814 164.408 100.402 164.8 102.52L167.378 116.461C167.768 118.579 166.678 120.423 164.943 120.581Z" fill="white" stroke="white" stroke-miterlimit="10"/>
<path d="M94.2686 159.616L82.8372 160.656C81.1009 160.814 79.3764 159.226 78.9842 157.108L76.4062 143.167C76.0149 141.05 77.1042 139.205 78.8404 139.047L90.2719 138.007C92.0082 137.849 93.7326 139.437 94.1248 141.555L96.7028 155.496C97.0941 157.614 96.004 159.458 94.2686 159.616Z" fill="white" stroke="white" stroke-miterlimit="10"/>
<path d="M119.803 157.292L108.373 158.332C106.636 158.49 104.912 156.902 104.52 154.784L101.942 140.843C101.55 138.726 102.64 136.881 104.376 136.723L115.807 135.683C117.544 135.525 119.268 137.113 119.66 139.231L122.238 153.172C122.63 155.29 121.539 157.134 119.803 157.292Z" fill="white" stroke="white" stroke-miterlimit="10"/>
<path d="M170.872 152.645L159.442 153.685C157.706 153.843 155.981 152.255 155.589 150.137L153.011 136.196C152.62 134.079 153.709 132.234 155.445 132.076L166.877 131.036C168.613 130.878 170.337 132.466 170.73 134.584L173.308 148.525C173.699 150.642 172.609 152.487 170.872 152.645Z" fill="white" stroke="white" stroke-miterlimit="10"/>
<path d="M100.198 191.68L88.7676 192.72C87.0313 192.878 85.3069 191.29 84.9147 189.172L82.3367 175.231C81.9454 173.114 83.0346 171.269 84.7709 171.111L96.2023 170.071C97.9386 169.913 99.663 171.501 100.055 173.619L102.633 187.56C103.025 189.677 101.934 191.521 100.198 191.68Z" fill="white" stroke="white" stroke-miterlimit="10"/>
<path d="M125.734 189.356L114.303 190.396C112.567 190.554 110.842 188.966 110.45 186.848L107.872 172.907C107.481 170.79 108.57 168.945 110.306 168.787L121.738 167.747C123.474 167.589 125.199 169.177 125.591 171.295L128.169 185.236C128.559 187.353 127.47 189.198 125.734 189.356Z" fill="white" stroke="white" stroke-miterlimit="10"/>
<path d="M151.268 187.032L139.837 188.072C138.101 188.23 136.376 186.642 135.984 184.524L133.406 170.583C133.015 168.466 134.104 166.621 135.84 166.463L147.272 165.423C149.008 165.265 150.732 166.853 151.124 168.971L153.702 182.912C154.095 185.029 153.005 186.874 151.268 187.032Z" fill="white" stroke="white" stroke-miterlimit="10"/>
<path d="M176.803 184.708L165.372 185.748C163.636 185.906 161.912 184.318 161.519 182.2L158.941 168.259C158.55 166.142 159.639 164.297 161.376 164.139L172.807 163.099C174.543 162.941 176.268 164.529 176.66 166.647L179.238 180.588C179.629 182.706 178.539 184.55 176.803 184.708Z" fill="white" stroke="white" stroke-miterlimit="10"/>
<path d="M106.129 223.743L94.6972 224.783C92.9609 224.941 91.2365 223.353 90.8443 221.235L88.2662 207.294C87.8749 205.177 88.9642 203.332 90.7005 203.174L102.132 202.134C103.868 201.976 105.593 203.564 105.985 205.682L108.563 219.623C108.955 221.74 107.865 223.585 106.129 223.743Z" fill="white" stroke="white" stroke-miterlimit="10"/>
<path d="M131.663 221.419L120.233 222.459C118.496 222.617 116.772 221.029 116.38 218.911L113.802 204.97C113.41 202.853 114.5 201.008 116.236 200.85L127.667 199.81C129.404 199.652 131.128 201.24 131.52 203.358L134.098 217.299C134.49 219.417 133.4 221.261 131.663 221.419Z" fill="white" stroke="white" stroke-miterlimit="10"/>
<path d="M157.199 219.095L145.767 220.135C144.031 220.293 142.307 218.705 141.914 216.587L139.336 202.646C138.945 200.529 140.034 198.684 141.771 198.526L153.202 197.486C154.938 197.328 156.663 198.916 157.055 201.034L159.633 214.975C160.024 217.093 158.935 218.937 157.199 219.095Z" fill="white" stroke="white" stroke-miterlimit="10"/>
<path d="M182.733 216.771L171.303 217.811C169.567 217.969 167.842 216.381 167.45 214.263L164.872 200.323C164.481 198.206 165.57 196.361 167.306 196.203L178.738 195.163C180.474 195.005 182.198 196.593 182.59 198.711L185.168 212.652C185.56 214.769 184.47 216.613 182.733 216.771Z" fill="white" stroke="white" stroke-miterlimit="10"/>
<path d="M112.059 255.806L100.628 256.846C98.8914 257.004 97.1669 255.416 96.7747 253.298L94.1967 239.358C93.8054 237.241 94.8946 235.396 96.6309 235.238L108.062 234.198C109.799 234.04 111.523 235.628 111.915 237.746L114.493 251.687C114.886 253.804 113.795 255.648 112.059 255.806Z" fill="white" stroke="white" stroke-miterlimit="10"/>
<path d="M137.594 253.482L126.163 254.522C124.427 254.68 122.702 253.092 122.31 250.974L119.732 237.033C119.341 234.916 120.43 233.071 122.166 232.913L133.598 231.873C135.334 231.715 137.059 233.303 137.451 235.42L140.029 249.361C140.42 251.48 139.33 253.324 137.594 253.482Z" fill="white" stroke="white" stroke-miterlimit="10"/>
<path d="M163.129 251.159L151.698 252.199C149.961 252.357 148.237 250.769 147.845 248.651L145.267 234.71C144.875 232.593 145.965 230.748 147.701 230.59L159.132 229.55C160.869 229.392 162.593 230.98 162.985 233.098L165.563 247.038C165.955 249.156 164.865 251.001 163.129 251.159Z" fill="white" stroke="white" stroke-miterlimit="10"/>
<path d="M188.664 248.835L177.233 249.875C175.497 250.033 173.773 248.445 173.38 246.327L170.802 232.386C170.411 230.269 171.5 228.424 173.237 228.266L184.668 227.226C186.404 227.068 188.129 228.656 188.521 230.774L191.099 244.715C191.489 246.832 190.4 248.677 188.664 248.835Z" fill="white" stroke="white" stroke-miterlimit="10"/>
<path d="M117.99 287.87L106.558 288.91C104.822 289.068 103.097 287.48 102.705 285.362L100.127 271.421C99.7358 269.304 100.825 267.459 102.561 267.301L113.993 266.261C115.729 266.103 117.454 267.691 117.846 269.809L120.424 283.75C120.815 285.867 119.726 287.711 117.99 287.87Z" fill="#263238"/>
<path d="M143.524 285.546L132.094 286.586C130.357 286.744 128.633 285.156 128.241 283.038L125.663 269.097C125.271 266.98 126.361 265.135 128.097 264.977L139.528 263.937C141.265 263.779 142.989 265.367 143.381 267.485L145.959 281.426C146.351 283.543 145.26 285.388 143.524 285.546Z" fill="#263238"/>
<path d="M169.059 283.222L157.627 284.262C155.891 284.42 154.167 282.832 153.774 280.714L151.196 266.773C150.805 264.656 151.894 262.811 153.631 262.653L165.062 261.613C166.798 261.455 168.523 263.043 168.915 265.161L171.493 279.102C171.885 281.22 170.795 283.064 169.059 283.222Z" fill="#263238"/>
<path d="M194.594 280.898L183.163 281.938C181.427 282.096 179.702 280.508 179.31 278.39L176.732 264.449C176.341 262.332 177.43 260.487 179.166 260.329L190.598 259.289C192.334 259.131 194.058 260.719 194.45 262.837L197.028 276.778C197.42 278.896 196.33 280.74 194.594 280.898Z" fill="#263238"/>
<path d="M153.296 165.578L130.073 167.691C126.545 168.012 123.041 164.785 122.246 160.484L117.007 132.162C116.211 127.861 118.425 124.113 121.953 123.792L145.177 121.679C148.704 121.358 152.208 124.585 153.004 128.886L158.243 157.208C159.037 161.51 156.823 165.257 153.296 165.578Z" stroke="#263238" stroke-width="0.25" stroke-miterlimit="10"/>
<path d="M150.994 162.51L131.181 164.313C128.172 164.587 125.182 161.834 124.503 158.164L120.034 134C119.355 130.33 121.245 127.133 124.254 126.859L144.067 125.056C147.077 124.782 150.066 127.535 150.745 131.205L155.214 155.369C155.893 159.039 154.004 162.236 150.994 162.51Z" stroke="#263238" stroke-width="0.5" stroke-miterlimit="10"/>
<path d="M147.957 158.46L132.645 159.853C130.32 160.065 128.01 157.937 127.484 155.101L124.031 136.428C123.507 133.592 124.967 131.121 127.292 130.91L142.603 129.517C144.928 129.305 147.239 131.433 147.764 134.269L151.217 152.942C151.742 155.777 150.282 158.248 147.957 158.46Z" stroke="#263238" stroke-width="0.75" stroke-miterlimit="10"/>
<path d="M145.338 154.969L133.906 156.009C132.17 156.167 130.446 154.579 130.053 152.461L127.475 138.52C127.084 136.403 128.173 134.558 129.91 134.4L141.341 133.36C143.077 133.202 144.802 134.79 145.194 136.908L147.772 150.849C148.164 152.966 147.074 154.811 145.338 154.969Z" fill="#263238"/>
<path opacity="0.1" d="M317.479 106.783C313.863 103.555 310.112 100.5 306.407 97.386L227.575 110.453L233.844 142.6L284.691 196.178L267.278 255.88L302.817 298.005C310.414 289.48 318.952 281.842 326.589 273.42C362.109 234.249 360.885 159.64 328.78 118.569C325.361 114.195 321.507 110.379 317.479 106.783Z" fill="black"/>
<path d="M209.166 157.177C209.166 157.177 167.375 146.514 165.035 145.95C162.694 145.386 153.017 142.266 150.757 142.371C148.497 142.476 140.378 143.668 138.836 144.576C137.293 145.484 137.808 146.316 138.62 146.197C139.432 146.078 147.145 144.945 147.145 144.945L151.611 147.695C151.611 147.695 148.856 150.657 148.703 152.663C148.323 157.679 148.421 158.834 149.436 158.685C150.45 158.536 150.584 152.84 150.584 152.84L151.342 152.275L152.06 156.483C152.06 156.483 153.045 157.938 153.599 156.289C153.984 155.142 153.223 152.453 153.223 152.453L154.711 151.099C154.711 151.099 155.09 154.591 155.808 155.024C156.402 155.382 156.923 155.025 156.841 154.356C156.76 153.687 156.402 151.095 156.402 151.095L159.041 149.328C159.041 149.328 201.51 168.973 205.936 169.685C210.361 170.397 214.948 169.042 214.948 169.042L209.166 157.177Z" fill="white" stroke="#263238" stroke-miterlimit="10" stroke-linecap="round" stroke-linejoin="round"/>
<path d="M331.353 183.843C331.353 183.843 328.513 188.8 329.25 189.196C329.987 189.592 332.947 185.626 332.947 185.626L331.49 190.632C331.49 190.632 331.385 191.656 333.069 190.4C334.752 189.144 334.36 185.923 334.36 185.923L334.542 191.193C334.542 191.193 333.4 193.126 334.979 192.894C336.557 192.662 336.752 188.598 336.602 187.359C336.451 186.12 335.563 184.485 334.736 183.345C333.908 182.207 331.653 182.538 331.353 183.843Z" fill="white" stroke="#263238" stroke-miterlimit="10" stroke-linecap="round" stroke-linejoin="round"/>
<path d="M299.909 142.261C299.909 142.261 305.077 143.311 307.799 144.929C310.521 146.547 331.365 170.726 331.921 173.419C332.478 176.112 334.058 179.663 335.171 181.265C336.284 182.867 339.848 187.64 340.09 189.623C340.331 191.605 339.609 193.225 338.752 191.837C337.895 190.45 335.894 187.212 334.36 185.924C332.826 184.636 328.106 183.564 328.106 183.564C328.106 183.564 328.181 186.075 327.776 188.405C327.371 190.734 325.778 192.734 325.627 191.495C325.476 190.256 325.115 187.282 325.295 184.986C325.475 182.69 325.443 178.659 325.443 178.659L326.058 174.281C326.058 174.281 312.27 164.704 307.082 161.682C301.895 158.661 297.128 155.325 297.128 155.325L293.88 155.045C293.88 155.045 294.028 148.718 296.012 146.156C297.997 143.594 299.909 142.261 299.909 142.261Z" fill="white"/>
<mask id="mask0_22_3" style="mask-type:luminance" maskUnits="userSpaceOnUse" x="293" y="142" width="48" height="51">
<path d="M299.909 142.261C299.909 142.261 305.077 143.311 307.799 144.929C310.521 146.547 331.365 170.726 331.921 173.419C332.478 176.112 334.058 179.663 335.171 181.265C336.284 182.867 339.848 187.64 340.09 189.623C340.331 191.605 339.609 193.225 338.752 191.837C337.895 190.45 335.894 187.212 334.36 185.924C332.826 184.636 328.106 183.564 328.106 183.564C328.106 183.564 328.181 186.075 327.776 188.405C327.371 190.734 325.778 192.734 325.627 191.495C325.476 190.256 325.115 187.282 325.295 184.986C325.475 182.69 325.443 178.659 325.443 178.659L326.058 174.281C326.058 174.281 312.27 164.704 307.082 161.682C301.895 158.661 297.128 155.325 297.128 155.325L293.88 155.045C293.88 155.045 294.028 148.718 296.012 146.156C297.997 143.594 299.909 142.261 299.909 142.261Z" fill="white"/>
</mask>
<g mask="url(#mask0_22_3)">
<path d="M331.921 173.419C331.364 170.726 310.52 146.547 307.798 144.929C305.076 143.311 299.908 142.261 299.908 142.261C299.908 142.261 297.996 143.594 296.012 146.155C294.028 148.716 293.88 155.044 293.88 155.044L297.127 155.324C297.127 155.324 297.745 155.756 298.767 156.444L301.154 148.865C301.154 148.865 324.334 167.969 326.652 170.198C328.969 172.427 331.464 176.325 333.316 178.795C333.609 179.186 334.02 179.648 334.49 180.143C333.491 178.327 332.372 175.599 331.921 173.419Z" fill="#E83538"/>
</g>
<mask id="mask1_22_3" style="mask-type:luminance" maskUnits="userSpaceOnUse" x="293" y="142" width="48" height="51">
<path d="M299.909 142.261C299.909 142.261 305.077 143.311 307.799 144.929C310.521 146.547 331.365 170.726 331.921 173.419C332.478 176.112 334.058 179.663 335.171 181.265C336.284 182.867 339.848 187.64 340.09 189.623C340.331 191.605 339.609 193.225 338.752 191.837C337.895 190.45 335.894 187.212 334.36 185.924C332.826 184.636 328.106 183.564 328.106 183.564C328.106 183.564 328.181 186.075 327.776 188.405C327.371 190.734 325.778 192.734 325.627 191.495C325.476 190.256 325.115 187.282 325.295 184.986C325.475 182.69 325.443 178.659 325.443 178.659L326.058 174.281C326.058 174.281 312.27 164.704 307.082 161.682C301.895 158.661 297.128 155.325 297.128 155.325L293.88 155.045C293.88 155.045 294.028 148.718 296.012 146.156C297.997 143.594 299.909 142.261 299.909 142.261Z" fill="white"/>
</mask>
<g mask="url(#mask1_22_3)">
<path opacity="0.5" d="M331.921 173.419C331.364 170.726 310.52 146.547 307.798 144.929C305.076 143.311 299.908 142.261 299.908 142.261C299.908 142.261 297.996 143.594 296.012 146.155C294.028 148.716 293.88 155.044 293.88 155.044L297.127 155.324C297.127 155.324 297.745 155.756 298.767 156.444L301.154 148.865C301.154 148.865 324.334 167.969 326.652 170.198C328.969 172.427 331.464 176.325 333.316 178.795C333.609 179.186 334.02 179.648 334.49 180.143C333.491 178.327 332.372 175.599 331.921 173.419Z" fill="white"/>
</g>
<path d="M299.909 142.261C299.909 142.261 305.077 143.311 307.799 144.929C310.521 146.547 331.365 170.726 331.921 173.419C332.478 176.112 334.058 179.663 335.171 181.265C336.284 182.867 339.848 187.64 340.09 189.623C340.331 191.605 339.609 193.225 338.752 191.837C337.895 190.45 335.894 187.212 334.36 185.924C332.826 184.636 328.106 183.564 328.106 183.564C328.106 183.564 328.181 186.075 327.776 188.405C327.371 190.734 325.778 192.734 325.627 191.495C325.476 190.256 325.115 187.282 325.295 184.986C325.475 182.69 325.443 178.659 325.443 178.659L326.058 174.281C326.058 174.281 312.27 164.704 307.082 161.682C301.895 158.661 297.128 155.325 297.128 155.325L293.88 155.045C293.88 155.045 294.028 148.718 296.012 146.156C297.997 143.594 299.909 142.261 299.909 142.261Z" stroke="#263238" stroke-miterlimit="10" stroke-linecap="round" stroke-linejoin="round"/>
<path d="M266.91 206.927L267.77 219.664C267.77 219.664 263.468 261.66 272.054 273.767C280.642 285.874 308.372 317.617 308.372 317.617L312.73 311.932C312.73 311.932 297.237 278.896 294.378 274.272C291.521 269.647 286.796 257.225 286.796 257.225C286.796 257.225 296.39 213.443 297.066 209.56C297.741 205.678 297.378 195.138 297.257 194.146C297.137 193.155 286.374 199.023 280.015 201.47C273.659 203.918 266.91 206.927 266.91 206.927Z" fill="#263238" stroke="#263238" stroke-miterlimit="10" stroke-linecap="round" stroke-linejoin="round"/>
<path d="M283.357 210.061C283.357 210.061 280.367 213.779 281.164 214.671C281.962 215.563 281.962 215.563 281.962 215.563C281.962 215.563 265.161 239.722 262.953 246.099C260.744 252.477 256.404 267.743 256.494 268.486C256.584 269.229 259.426 271.839 261.261 271.822C263.095 271.805 319.848 276.081 319.848 276.081L321.154 269.836L279.928 255.461C279.928 255.461 304.707 215.754 305.864 212.053C307.02 208.352 305.543 196.21 305.332 194.475C305.121 192.74 302.986 190.28 301.182 190.545C299.378 190.81 283.866 202.925 283.866 202.925" fill="#263238"/>
<path d="M283.357 210.061C283.357 210.061 280.367 213.779 281.164 214.671C281.962 215.563 281.962 215.563 281.962 215.563C281.962 215.563 265.161 239.722 262.953 246.099C260.744 252.477 256.404 267.743 256.494 268.486C256.584 269.229 259.426 271.839 261.261 271.822C263.095 271.805 319.848 276.081 319.848 276.081L321.154 269.836L279.928 255.461C279.928 255.461 304.707 215.754 305.864 212.053C307.02 208.352 305.543 196.21 305.332 194.475C305.121 192.74 302.986 190.28 301.182 190.545C299.378 190.81 283.866 202.925 283.866 202.925" stroke="#263238" stroke-miterlimit="10" stroke-linecap="round" stroke-linejoin="round"/>
<path d="M267.075 237.135L281.578 213.418C281.578 213.418 284.201 206.059 293.008 204.145" stroke="white" stroke-miterlimit="10" stroke-linecap="round" stroke-linejoin="round"/>
<path d="M283.266 206.602C283.266 206.602 294.588 197.489 300.991 199.032" stroke="white" stroke-miterlimit="10" stroke-linecap="round" stroke-linejoin="round"/>
<path d="M270.264 263.365L288.836 239.527" stroke="white" stroke-miterlimit="10" stroke-linecap="round" stroke-linejoin="round"/>
<path d="M277.259 255.113L283.311 256.708" stroke="white" stroke-miterlimit="10" stroke-linecap="round" stroke-linejoin="round"/>
<path d="M236.485 149.078C224.199 153.38 224.808 153.29 224.808 153.29L206.973 156.136L214.854 173.368L235.626 175.993C235.626 175.993 255.957 197.073 259.774 197.874C263.59 198.676 265.838 203.567 265.838 203.567C265.838 203.567 264.337 206.512 266.353 207.805C268.37 209.098 271.293 209.35 277.477 207.534C283.661 205.718 292.482 200.108 296.595 196.553C300.708 192.998 306.593 188.728 304.725 186.959C302.857 185.19 299.19 183.912 299.19 183.912L280.225 162.178L295.883 163.511C295.883 163.511 295.704 153.548 295.933 150.336C296.162 147.124 299.909 142.26 299.909 142.26C299.909 142.26 279.881 140.661 274.184 139.681C268.486 138.701 262.952 139.06 260.625 140.31C258.298 141.56 247.73 144.701 247.12 144.79C246.512 144.881 236.485 149.078 236.485 149.078Z" fill="white"/>
<mask id="mask2_22_3" style="mask-type:luminance" maskUnits="userSpaceOnUse" x="206" y="139" width="100" height="70">
<path d="M236.485 149.078C224.199 153.38 224.808 153.29 224.808 153.29L206.973 156.136L214.854 173.368L235.626 175.993C235.626 175.993 255.957 197.073 259.774 197.874C263.59 198.676 265.838 203.567 265.838 203.567C265.838 203.567 264.337 206.512 266.353 207.805C268.37 209.098 271.293 209.35 277.477 207.534C283.661 205.718 292.482 200.108 296.595 196.553C300.708 192.998 306.593 188.728 304.725 186.959C302.857 185.19 299.19 183.912 299.19 183.912L280.225 162.178L295.883 163.511C295.883 163.511 295.704 153.548 295.933 150.336C296.162 147.124 299.909 142.26 299.909 142.26C299.909 142.26 279.881 140.661 274.184 139.681C268.486 138.701 262.952 139.06 260.625 140.31C258.298 141.56 247.73 144.701 247.12 144.79C246.512 144.881 236.485 149.078 236.485 149.078Z" fill="white"/>
</mask>
<g mask="url(#mask2_22_3)">
<path d="M274.183 139.682C268.485 138.702 262.951 139.061 260.624 140.311C258.297 141.561 247.729 144.702 247.119 144.792C247.007 144.809 246.571 144.966 245.937 145.211L247.999 151.659L253.638 149.82C253.638 149.82 265.228 146.954 270.443 146.954C275.658 146.954 295.651 148.864 295.651 148.864L296.284 148.709C297.261 145.703 299.909 142.26 299.909 142.26C299.909 142.26 279.88 140.662 274.183 139.682Z" fill="#E83538"/>
</g>
<mask id="mask3_22_3" style="mask-type:luminance" maskUnits="userSpaceOnUse" x="206" y="139" width="100" height="70">
<path d="M236.485 149.078C224.199 153.38 224.808 153.29 224.808 153.29L206.973 156.136L214.854 173.368L235.626 175.993C235.626 175.993 255.957 197.073 259.774 197.874C263.59 198.676 265.838 203.567 265.838 203.567C265.838 203.567 264.337 206.512 266.353 207.805C268.37 209.098 271.293 209.35 277.477 207.534C283.661 205.718 292.482 200.108 296.595 196.553C300.708 192.998 306.593 188.728 304.725 186.959C302.857 185.19 299.19 183.912 299.19 183.912L280.225 162.178L295.883 163.511C295.883 163.511 295.704 153.548 295.933 150.336C296.162 147.124 299.909 142.26 299.909 142.26C299.909 142.26 279.881 140.661 274.184 139.681C268.486 138.701 262.952 139.06 260.625 140.31C258.298 141.56 247.73 144.701 247.12 144.79C246.512 144.881 236.485 149.078 236.485 149.078Z" fill="white"/>
</mask>
<g mask="url(#mask3_22_3)">
<path opacity="0.5" d="M274.183 139.682C268.485 138.702 262.951 139.061 260.624 140.311C258.297 141.561 247.729 144.702 247.119 144.792C247.007 144.809 246.571 144.966 245.937 145.211L247.999 151.659L253.638 149.82C253.638 149.82 265.228 146.954 270.443 146.954C275.658 146.954 295.651 148.864 295.651 148.864L296.284 148.709C297.261 145.703 299.909 142.26 299.909 142.26C299.909 142.26 279.88 140.662 274.183 139.682Z" fill="white"/>
</g>
<mask id="mask4_22_3" style="mask-type:luminance" maskUnits="userSpaceOnUse" x="206" y="139" width="100" height="70">
<path d="M236.485 149.078C224.199 153.38 224.808 153.29 224.808 153.29L206.973 156.136L214.854 173.368L235.626 175.993C235.626 175.993 255.957 197.073 259.774 197.874C263.59 198.676 265.838 203.567 265.838 203.567C265.838 203.567 264.337 206.512 266.353 207.805C268.37 209.098 271.293 209.35 277.477 207.534C283.661 205.718 292.482 200.108 296.595 196.553C300.708 192.998 306.593 188.728 304.725 186.959C302.857 185.19 299.19 183.912 299.19 183.912L280.225 162.178L295.883 163.511C295.883 163.511 295.704 153.548 295.933 150.336C296.162 147.124 299.909 142.26 299.909 142.26C299.909 142.26 279.881 140.661 274.184 139.681C268.486 138.701 262.952 139.06 260.625 140.31C258.298 141.56 247.73 144.701 247.12 144.79C246.512 144.881 236.485 149.078 236.485 149.078Z" fill="white"/>
</mask>
<g mask="url(#mask4_22_3)">
<path d="M304.725 186.96C302.857 185.191 299.19 183.913 299.19 183.913L281.29 163.399L276.559 161.666L259.876 164.666L289.142 176.934C288.611 177.048 287.456 177.34 285.053 178C278.986 179.667 260.18 178 260.18 178C260.18 178 274.437 184.333 281.717 187.333C288.997 190.333 291.727 189.666 287.48 192C283.233 194.333 278.077 195.667 263.82 194.333C260.105 193.985 256.661 193.684 253.594 193.427C256.398 195.877 258.719 197.654 259.775 197.875C263.591 198.677 265.839 203.568 265.839 203.568C265.839 203.568 264.338 206.513 266.354 207.806C268.371 209.099 271.294 209.351 277.478 207.535C283.661 205.719 292.483 200.109 296.596 196.554C300.708 192.999 306.593 188.729 304.725 186.96Z" fill="#E83538"/>
</g>
<mask id="mask5_22_3" style="mask-type:luminance" maskUnits="userSpaceOnUse" x="206" y="139" width="100" height="70">
<path d="M236.485 149.078C224.199 153.38 224.808 153.29 224.808 153.29L206.973 156.136L214.854 173.368L235.626 175.993C235.626 175.993 255.957 197.073 259.774 197.874C263.59 198.676 265.838 203.567 265.838 203.567C265.838 203.567 264.337 206.512 266.353 207.805C268.37 209.098 271.293 209.35 277.477 207.534C283.661 205.718 292.482 200.108 296.595 196.553C300.708 192.998 306.593 188.728 304.725 186.959C302.857 185.19 299.19 183.912 299.19 183.912L280.225 162.178L295.883 163.511C295.883 163.511 295.704 153.548 295.933 150.336C296.162 147.124 299.909 142.26 299.909 142.26C299.909 142.26 279.881 140.661 274.184 139.681C268.486 138.701 262.952 139.06 260.625 140.31C258.298 141.56 247.73 144.701 247.12 144.79C246.512 144.881 236.485 149.078 236.485 149.078Z" fill="white"/>
</mask>
<g mask="url(#mask5_22_3)">
<path opacity="0.5" d="M304.725 186.96C302.857 185.191 299.19 183.913 299.19 183.913L281.29 163.399L276.559 161.666L259.876 164.666L289.142 176.934C288.611 177.048 287.456 177.34 285.053 178C278.986 179.667 260.18 178 260.18 178C260.18 178 274.437 184.333 281.717 187.333C288.997 190.333 291.727 189.666 287.48 192C283.233 194.333 278.077 195.667 263.82 194.333C260.105 193.985 256.661 193.684 253.594 193.427C256.398 195.877 258.719 197.654 259.775 197.875C263.591 198.677 265.839 203.568 265.839 203.568C265.839 203.568 264.338 206.513 266.354 207.806C268.371 209.099 271.294 209.351 277.478 207.535C283.661 205.719 292.483 200.109 296.596 196.554C300.708 192.999 306.593 188.729 304.725 186.96Z" fill="white"/>
</g>
<path d="M236.485 149.078C224.199 153.38 224.808 153.29 224.808 153.29L206.973 156.136L214.854 173.368L235.626 175.993C235.626 175.993 255.957 197.073 259.774 197.874C263.59 198.676 265.838 203.567 265.838 203.567C265.838 203.567 264.337 206.512 266.353 207.805C268.37 209.098 271.293 209.35 277.477 207.534C283.661 205.718 292.482 200.108 296.595 196.553C300.708 192.998 306.593 188.728 304.725 186.959C302.857 185.19 299.19 183.912 299.19 183.912L280.225 162.178L295.883 163.511C295.883 163.511 295.704 153.548 295.933 150.336C296.162 147.124 299.909 142.26 299.909 142.26C299.909 142.26 279.881 140.661 274.184 139.681C268.486 138.701 262.952 139.06 260.625 140.31C258.298 141.56 247.73 144.701 247.12 144.79C246.512 144.881 236.485 149.078 236.485 149.078Z" stroke="#263238" stroke-miterlimit="10"/>
<path d="M249.061 164.912L256.64 176.584L258.623 174.601L253.095 167.14" fill="white"/>
<path d="M249.061 164.912L256.64 176.584L258.623 174.601L253.095 167.14" stroke="#263238" stroke-miterlimit="10" stroke-linecap="round" stroke-linejoin="round"/>
<path d="M224.743 164.723L235.626 175.994L218.939 164.824" stroke="#263238" stroke-miterlimit="10" stroke-linecap="round" stroke-linejoin="round"/>
<path d="M280.225 162.179L266.71 159.5" stroke="#263238" stroke-miterlimit="10" stroke-linecap="round" stroke-linejoin="round"/>
<path d="M278.824 162.045L265.22 162.727" stroke="#263238" stroke-miterlimit="10" stroke-linecap="round" stroke-linejoin="round"/>
<path d="M292.249 183.704C292.925 183.643 293.598 183.565 294.262 183.467L292.249 183.704Z" fill="white"/>
<path d="M292.249 183.704C292.925 183.643 293.598 183.565 294.262 183.467" stroke="#263238" stroke-miterlimit="10" stroke-linecap="round" stroke-linejoin="round"/>
<path d="M267.209 180.484C267.209 180.484 279.099 184.333 290.404 183.827" stroke="#263238" stroke-miterlimit="10" stroke-linecap="round" stroke-linejoin="round"/>
<path d="M237.42 151.665C237.42 151.665 239.614 159.516 240.021 162.862C240.428 166.208 238.954 169.376 240.754 168.884C242.554 168.393 242.485 162.727 242.485 162.727L249.075 164.256L251.996 157.697C251.996 157.697 257.397 163.034 257.274 160.327C257.151 157.621 251.6 145.949 251.274 143.272C250.949 140.595 247.972 139.898 245.929 141.787C243.885 143.678 237.42 151.665 237.42 151.665Z" fill="white"/>
<mask id="mask6_22_3" style="mask-type:luminance" maskUnits="userSpaceOnUse" x="237" y="140" width="21" height="29">
<path d="M237.42 151.665C237.42 151.665 239.614 159.516 240.021 162.862C240.428 166.208 238.954 169.376 240.754 168.884C242.554 168.393 242.485 162.727 242.485 162.727L249.075 164.256L251.996 157.697C251.996 157.697 257.397 163.034 257.274 160.327C257.151 157.621 251.6 145.949 251.274 143.272C250.949 140.595 247.972 139.898 245.929 141.787C243.885 143.678 237.42 151.665 237.42 151.665Z" fill="white"/>
</mask>
<g mask="url(#mask6_22_3)">
<path d="M251.274 143.274C250.949 140.597 247.972 139.9 245.929 141.789C245.706 141.995 245.423 142.284 245.109 142.617L247.999 151.659L253.569 149.843C252.417 146.97 251.407 144.368 251.274 143.274Z" fill="#E83538"/>
</g>
<mask id="mask7_22_3" style="mask-type:luminance" maskUnits="userSpaceOnUse" x="237" y="140" width="21" height="29">
<path d="M237.42 151.665C237.42 151.665 239.614 159.516 240.021 162.862C240.428 166.208 238.954 169.376 240.754 168.884C242.554 168.393 242.485 162.727 242.485 162.727L249.075 164.256L251.996 157.697C251.996 157.697 257.397 163.034 257.274 160.327C257.151 157.621 251.6 145.949 251.274 143.272C250.949 140.595 247.972 139.898 245.929 141.787C243.885 143.678 237.42 151.665 237.42 151.665Z" fill="white"/>
</mask>
<g mask="url(#mask7_22_3)">
<path opacity="0.5" d="M251.274 143.274C250.949 140.597 247.972 139.9 245.929 141.789C245.706 141.995 245.423 142.284 245.109 142.617L247.999 151.659L253.569 149.843C252.417 146.97 251.407 144.368 251.274 143.274Z" fill="white"/>
</g>
<path d="M237.42 151.665C237.42 151.665 239.614 159.516 240.021 162.862C240.428 166.208 238.954 169.376 240.754 168.884C242.554 168.393 242.485 162.727 242.485 162.727L249.075 164.256L251.996 157.697C251.996 157.697 257.397 163.034 257.274 160.327C257.151 157.621 251.6 145.949 251.274 143.272C250.949 140.595 247.972 139.898 245.929 141.787C243.885 143.678 237.42 151.665 237.42 151.665Z" stroke="#263238" stroke-miterlimit="10"/>
<path d="M229.015 148.813C229.015 148.813 232.994 150.953 235.362 151.74C237.731 152.527 249.481 167.602 249.074 164.256C248.667 160.91 247.906 147.854 247.12 144.791C246.335 141.728 244.005 136.167 244.005 136.167C244.005 136.167 245.899 134.754 242.841 133.386C239.782 132.019 237.414 134.637 237.577 135.975C237.74 137.313 238.092 140.213 237.308 140.555C236.523 140.897 229.015 148.813 229.015 148.813Z" fill="white"/>
<mask id="mask8_22_3" style="mask-type:luminance" maskUnits="userSpaceOnUse" x="229" y="133" width="21" height="32">
<path d="M229.015 148.813C229.015 148.813 232.994 150.953 235.362 151.74C237.731 152.527 249.481 167.602 249.074 164.256C248.667 160.91 247.906 147.854 247.12 144.791C246.335 141.728 244.005 136.167 244.005 136.167C244.005 136.167 245.899 134.754 242.841 133.386C239.782 132.019 237.414 134.637 237.577 135.975C237.74 137.313 238.092 140.213 237.308 140.555C236.523 140.897 229.015 148.813 229.015 148.813Z" fill="white"/>
</mask>
<g mask="url(#mask8_22_3)">
<path d="M247.12 144.792C246.335 141.729 244.005 136.168 244.005 136.168C244.005 136.168 245.899 134.755 242.841 133.388C239.782 132.021 237.414 134.639 237.577 135.977C237.74 137.315 238.092 140.215 237.308 140.557C236.786 140.784 233.307 144.344 231.024 146.714L230.749 148.546L247.999 151.658C247.722 148.638 247.423 145.972 247.12 144.792Z" fill="#E83538"/>
</g>
<mask id="mask9_22_3" style="mask-type:luminance" maskUnits="userSpaceOnUse" x="229" y="133" width="21" height="32">
<path d="M229.015 148.813C229.015 148.813 232.994 150.953 235.362 151.74C237.731 152.527 249.481 167.602 249.074 164.256C248.667 160.91 247.906 147.854 247.12 144.791C246.335 141.728 244.005 136.167 244.005 136.167C244.005 136.167 245.899 134.754 242.841 133.386C239.782 132.019 237.414 134.637 237.577 135.975C237.74 137.313 238.092 140.213 237.308 140.555C236.523 140.897 229.015 148.813 229.015 148.813Z" fill="white"/>
</mask>
<g mask="url(#mask9_22_3)">
<path opacity="0.5" d="M247.12 144.792C246.335 141.729 244.005 136.168 244.005 136.168C244.005 136.168 245.899 134.755 242.841 133.388C239.782 132.021 237.414 134.639 237.577 135.977C237.74 137.315 238.092 140.215 237.308 140.557C236.786 140.784 233.307 144.344 231.024 146.714L230.749 148.546L247.999 151.658C247.722 148.638 247.423 145.972 247.12 144.792Z" fill="white"/>
</g>
<path d="M229.015 148.813C229.015 148.813 232.994 150.953 235.362 151.74C237.731 152.527 249.481 167.602 249.074 164.256C248.667 160.91 247.906 147.854 247.12 144.791C246.335 141.728 244.005 136.167 244.005 136.167C244.005 136.167 245.899 134.754 242.841 133.386C239.782 132.019 237.414 134.637 237.577 135.975C237.74 137.313 238.092 140.213 237.308 140.555C236.523 140.897 229.015 148.813 229.015 148.813Z" stroke="#263238" stroke-miterlimit="10"/>
<path d="M222.147 121.216C222.147 121.216 218.128 120.444 215.624 118.542C213.12 116.639 214.08 112.639 216.759 110.883C219.438 109.127 222.644 106.613 226.149 106.552C229.655 106.491 230.779 110.64 233.268 110.728C235.758 110.816 242.388 107.572 246.097 110.887C249.806 114.202 249.362 125.846 248.009 128.315C246.657 130.784 244.006 136.168 244.006 136.168C244.006 136.168 241.868 135.574 240.162 135.143C238.457 134.712 239.566 133.641 237.767 134.133C235.967 134.624 234.168 135.116 232.558 133.763C230.947 132.41 230.554 130.879 229.579 129.66C228.605 128.441 226.831 125.75 227.129 124.798C227.426 123.846 227.534 121.333 227.534 121.333L222.147 121.216Z" fill="#263238" stroke="#263238" stroke-miterlimit="10"/>
<path d="M232.692 119.238C232.692 119.238 241.98 120.165 245.805 124.187" stroke="white" stroke-miterlimit="10" stroke-linecap="round" stroke-linejoin="round"/>
<path d="M243.715 126.342C244.392 126.797 245.037 127.307 245.628 127.879" stroke="white" stroke-miterlimit="10" stroke-linecap="round" stroke-linejoin="round"/>
<path d="M232.693 122.675C232.693 122.675 236.783 122.988 240.851 124.781" stroke="white" stroke-miterlimit="10" stroke-linecap="round" stroke-linejoin="round"/>
<path d="M242.167 118.276C243.981 119.471 244.753 120.675 244.753 120.675" stroke="white" stroke-miterlimit="10" stroke-linecap="round" stroke-linejoin="round"/>
<path d="M221.231 112.443C221.231 112.443 217.079 116.031 219.812 117.922C222.544 119.812 225.002 116.014 233.333 115.936C236.451 115.907 238.835 116.563 240.597 117.396" stroke="white" stroke-miterlimit="10" stroke-linecap="round" stroke-linejoin="round"/>
<path d="M220.536 119.863C220.536 119.863 218.678 126.979 219.05 128.028C219.542 129.419 219.89 131.537 219.89 131.537L217.361 136.222C217.361 136.222 217.781 137.977 218.62 138.08C219.459 138.184 221.476 139.477 221.476 139.477C221.476 139.477 223.914 149.335 224.781 149.662C225.647 149.989 227.636 151.059 228.394 150.494C229.152 149.929 238.393 142.669 239.502 141.598C240.611 140.527 240.163 135.144 240.163 135.144C240.163 135.144 243.004 131.321 241.867 128.764C240.729 126.207 238.145 127.04 237.347 128.974C236.549 130.908 236.251 131.859 236.251 131.859C236.251 131.859 234.276 132.603 233.91 131.295C233.544 129.986 233.544 129.986 233.544 129.986C233.544 129.986 230.092 127.087 230.011 126.418C229.93 125.749 231.146 118.759 231.146 118.759L220.536 119.863Z" fill="white"/>
<mask id="mask10_22_3" style="mask-type:luminance" maskUnits="userSpaceOnUse" x="217" y="118" width="26" height="33">
<path d="M220.536 119.863C220.536 119.863 218.678 126.979 219.05 128.028C219.542 129.419 219.89 131.537 219.89 131.537L217.361 136.222C217.361 136.222 217.781 137.977 218.62 138.08C219.459 138.184 221.476 139.477 221.476 139.477C221.476 139.477 223.914 149.335 224.781 149.662C225.647 149.989 227.636 151.059 228.394 150.494C229.152 149.929 238.393 142.669 239.502 141.598C240.611 140.527 240.163 135.144 240.163 135.144C240.163 135.144 243.004 131.321 241.867 128.764C240.729 126.207 238.145 127.04 237.347 128.974C236.549 130.908 236.251 131.859 236.251 131.859C236.251 131.859 234.276 132.603 233.91 131.295C233.544 129.986 233.544 129.986 233.544 129.986C233.544 129.986 230.092 127.087 230.011 126.418C229.93 125.749 231.146 118.759 231.146 118.759L220.536 119.863Z" fill="white"/>
</mask>
<g mask="url(#mask10_22_3)">
<path d="M241.865 128.763C240.728 126.206 238.143 127.039 237.345 128.973C236.547 130.907 236.25 131.858 236.25 131.858C236.25 131.858 234.274 132.602 233.908 131.294C233.542 129.985 233.542 129.985 233.542 129.985C233.542 129.985 230.091 127.086 230.01 126.417C229.929 125.748 231.144 118.758 231.144 118.758L228.007 119.085C226.605 122.967 225.392 127.223 226.112 128.805C227.561 131.989 229.01 133.581 229.01 135.81C229.01 138.039 230.169 139.949 230.458 141.86C230.69 143.391 228.322 148.593 227.37 150.603C227.783 150.677 228.152 150.672 228.393 150.493C229.151 149.928 238.391 142.668 239.5 141.597C240.609 140.526 240.162 135.143 240.162 135.143C240.162 135.143 243.003 131.321 241.865 128.763Z" fill="#E83538"/>
</g>
<mask id="mask11_22_3" style="mask-type:luminance" maskUnits="userSpaceOnUse" x="217" y="118" width="26" height="33">
<path d="M220.536 119.863C220.536 119.863 218.678 126.979 219.05 128.028C219.542 129.419 219.89 131.537 219.89 131.537L217.361 136.222C217.361 136.222 217.781 137.977 218.62 138.08C219.459 138.184 221.476 139.477 221.476 139.477C221.476 139.477 223.914 149.335 224.781 149.662C225.647 149.989 227.636 151.059 228.394 150.494C229.152 149.929 238.393 142.669 239.502 141.598C240.611 140.527 240.163 135.144 240.163 135.144C240.163 135.144 243.004 131.321 241.867 128.764C240.729 126.207 238.145 127.04 237.347 128.974C236.549 130.908 236.251 131.859 236.251 131.859C236.251 131.859 234.276 132.603 233.91 131.295C233.544 129.986 233.544 129.986 233.544 129.986C233.544 129.986 230.092 127.087 230.011 126.418C229.93 125.749 231.146 118.759 231.146 118.759L220.536 119.863Z" fill="white"/>
</mask>
<g mask="url(#mask11_22_3)">
<path opacity="0.5" d="M241.865 128.763C240.728 126.206 238.143 127.039 237.345 128.973C236.547 130.907 236.25 131.858 236.25 131.858C236.25 131.858 234.274 132.602 233.908 131.294C233.542 129.985 233.542 129.985 233.542 129.985C233.542 129.985 230.091 127.086 230.01 126.417C229.929 125.748 231.144 118.758 231.144 118.758L228.007 119.085C226.605 122.967 225.392 127.223 226.112 128.805C227.561 131.989 229.01 133.581 229.01 135.81C229.01 138.039 230.169 139.949 230.458 141.86C230.69 143.391 228.322 148.593 227.37 150.603C227.783 150.677 228.152 150.672 228.393 150.493C229.151 149.928 238.391 142.668 239.5 141.597C240.609 140.526 240.162 135.143 240.162 135.143C240.162 135.143 243.003 131.321 241.865 128.763Z" fill="white"/>
</g>
<path d="M220.536 119.863C220.536 119.863 218.678 126.979 219.05 128.028C219.542 129.419 219.89 131.537 219.89 131.537L217.361 136.222C217.361 136.222 217.781 137.977 218.62 138.08C219.459 138.184 221.476 139.477 221.476 139.477C221.476 139.477 223.914 149.335 224.781 149.662C225.647 149.989 227.636 151.059 228.394 150.494C229.152 149.929 238.393 142.669 239.502 141.598C240.611 140.527 240.163 135.144 240.163 135.144C240.163 135.144 243.004 131.321 241.867 128.764C240.729 126.207 238.145 127.04 237.347 128.974C236.549 130.908 236.251 131.859 236.251 131.859C236.251 131.859 234.276 132.603 233.91 131.295C233.544 129.986 233.544 129.986 233.544 129.986C233.544 129.986 230.092 127.087 230.011 126.418C229.93 125.749 231.146 118.759 231.146 118.759L220.536 119.863Z" stroke="#263238" stroke-miterlimit="10"/>
<path d="M153.193 145.418C153.193 145.418 149.351 147.799 147.808 148.706C146.266 149.614 144.006 149.718 144.751 150.744C145.495 151.77 149.622 150.029 149.622 150.029C149.622 150.029 154.372 150.013 156.199 149.744C158.025 149.476 158.62 147.572 158.62 147.572" fill="white"/>
<path d="M153.193 145.418C153.193 145.418 149.351 147.799 147.808 148.706C146.266 149.614 144.006 149.718 144.751 150.744C145.495 151.77 149.622 150.029 149.622 150.029C149.622 150.029 154.372 150.013 156.199 149.744C158.025 149.476 158.62 147.572 158.62 147.572" stroke="#263238" stroke-miterlimit="10" stroke-linecap="round" stroke-linejoin="round"/>
<path d="M308.373 317.617L307.94 327.265C307.94 327.265 302.727 339.128 302.366 339.938C302.006 340.748 302.668 342.416 304.411 341.655C306.155 340.895 309.822 337.077 311.896 335.259C313.97 333.441 317.096 328.946 318.975 327.409C320.854 325.872 322.972 322.534 322.882 321.791C322.792 321.048 312.732 311.932 312.732 311.932L308.373 317.617Z" fill="#E83538" stroke="#263238" stroke-miterlimit="10" stroke-linecap="round" stroke-linejoin="round"/>
<path d="M318.975 327.41C320.854 325.873 322.973 322.535 322.882 321.792C322.863 321.637 322.406 321.113 321.699 320.386C320.334 322.043 317.608 325.342 315.172 328.221C312.415 331.48 305.361 338.826 302.755 341.526C303.109 341.845 303.651 341.987 304.411 341.656C306.155 340.896 309.822 337.078 311.896 335.26C313.97 333.442 317.096 328.947 318.975 327.41Z" fill="#263238" stroke="#263238" stroke-miterlimit="10" stroke-linecap="round" stroke-linejoin="round"/>
<path d="M319.848 276.081L324.69 281.928L332.272 298.975C332.272 298.975 334.166 299.453 335.008 298.825C335.85 298.197 334.416 276.969 334.024 273.747C333.632 270.526 334.158 269.187 332.941 268.609C331.723 268.031 321.154 269.836 321.154 269.836L319.848 276.081Z" fill="#E83538" stroke="#263238" stroke-miterlimit="10" stroke-linecap="round" stroke-linejoin="round"/>
<path d="M332.94 268.609C332.722 268.506 332.202 268.48 331.501 268.505C332.099 274.396 333.614 289.253 333.999 292.415C334.272 294.66 334.222 297.273 334.127 299.12C334.459 299.082 334.774 298.998 335.008 298.824C335.85 298.196 334.416 276.968 334.024 273.746C333.631 270.525 334.157 269.187 332.94 268.609Z" fill="#263238" stroke="#263238" stroke-miterlimit="10" stroke-linecap="round" stroke-linejoin="round"/>
<path d="M40.8652 193.333V202.203" stroke="#263238" stroke-miterlimit="10" stroke-linecap="round" stroke-linejoin="round"/>
<path d="M44.9011 197.768H36.8285" stroke="#263238" stroke-miterlimit="10" stroke-linecap="round" stroke-linejoin="round"/>
<path d="M265.77 83.22V92.09" stroke="#263238" stroke-miterlimit="10" stroke-linecap="round" stroke-linejoin="round"/>
<path d="M269.806 87.655H261.734" stroke="#263238" stroke-miterlimit="10" stroke-linecap="round" stroke-linejoin="round"/>
<path d="M252.987 314.658V323.528" stroke="#263238" stroke-miterlimit="10" stroke-linecap="round" stroke-linejoin="round"/>
<path d="M257.023 319.093H248.951" stroke="#263238" stroke-miterlimit="10" stroke-linecap="round" stroke-linejoin="round"/>
<path d="M151.11 14.553V23.423" stroke="#263238" stroke-miterlimit="10" stroke-linecap="round" stroke-linejoin="round"/>
<path d="M155.146 18.988H147.074" stroke="#263238" stroke-miterlimit="10" stroke-linecap="round" stroke-linejoin="round"/>
<path d="M18.2499 258.553V267.423" stroke="#263238" stroke-miterlimit="10" stroke-linecap="round" stroke-linejoin="round"/>
<path d="M22.2857 262.988H14.2141" stroke="#263238" stroke-miterlimit="10" stroke-linecap="round" stroke-linejoin="round"/>
<path d="M261.967 52.9312C262.811 48.9891 260.587 45.0414 256.999 44.114C253.412 43.1866 249.819 45.6305 248.976 49.5727C248.132 53.5149 250.356 57.4625 253.943 58.3899C257.53 59.3173 261.123 56.8734 261.967 52.9312Z" stroke="#263238" stroke-miterlimit="10" stroke-linecap="round" stroke-linejoin="round"/>
<path d="M28.3429 214.468C31.7479 212.918 33.3648 208.628 31.9544 204.887C30.5439 201.145 26.6403 199.368 23.2354 200.918C19.8304 202.468 18.2135 206.758 19.6239 210.499C21.0343 214.241 24.938 216.018 28.3429 214.468Z" stroke="#263238" stroke-miterlimit="10" stroke-linecap="round" stroke-linejoin="round"/>
<path d="M292.49 126.249C292.49 127.17 291.811 127.916 290.973 127.916C290.136 127.916 289.456 127.17 289.456 126.249C289.456 125.329 290.135 124.582 290.973 124.582C291.81 124.583 292.49 125.329 292.49 126.249Z" stroke="#263238" stroke-miterlimit="10" stroke-linecap="round" stroke-linejoin="round"/>
<path d="M240.93 329.088C240.93 330.009 240.251 330.755 239.413 330.755C238.575 330.755 237.896 330.009 237.896 329.088C237.896 328.168 238.575 327.421 239.413 327.421C240.251 327.421 240.93 328.168 240.93 329.088Z" stroke="#263238" stroke-miterlimit="10" stroke-linecap="round" stroke-linejoin="round"/>
<path d="M324.321 235.454C324.321 236.375 323.642 237.121 322.804 237.121C321.967 237.121 321.287 236.375 321.287 235.454C321.287 234.534 321.966 233.787 322.804 233.787C323.642 233.787 324.321 234.533 324.321 235.454Z" stroke="#263238" stroke-miterlimit="10" stroke-linecap="round" stroke-linejoin="round"/>
<path d="M240.321 211.033C240.321 211.954 239.642 212.7 238.804 212.7C237.967 212.7 237.287 211.954 237.287 211.033C237.287 210.113 237.966 209.366 238.804 209.366C239.642 209.367 240.321 210.113 240.321 211.033Z" stroke="#263238" stroke-miterlimit="10" stroke-linecap="round" stroke-linejoin="round"/>
<path d="M134.717 29.094C134.717 30.015 134.038 30.761 133.2 30.761C132.362 30.761 131.683 30.015 131.683 29.094C131.683 28.174 132.362 27.427 133.2 27.427C134.038 27.427 134.717 28.173 134.717 29.094Z" stroke="#263238" stroke-miterlimit="10" stroke-linecap="round" stroke-linejoin="round"/>
</svg>
